<svg version="1.0" xmlns="http://www.w3.org/2000/svg" width="233.000000pt" height="233.000000pt" viewBox="0 0 233.000000 233.000000" preserveAspectRatio="xMidYMid meet"> 
    <g transform="translate(0.000000,233.000000) scale(0.100000,-0.100000)" stroke="none"> 
        <path d="M1016 2319 c-601 -78 -1048 -615 -1012 -1219 28 -474 340 -883 790 -1036 340 -116 730 -60 1033 148 459 315 627 941 388 1445 -217 459 -701 726 -1199 662z m389 -218 c369 -98 644 -398 710 -777 104 -595 -381 -1146 -985 -1121 -244 10 -458 101 -636 270 -78 74 -169 200 -209 291 -100 227 -112 489 -33 721 93 271 335 508 606 595 133 43 180 49 332 46 97 -3 158 -10 215 -25z"/> 
        <path d="M755 1530 c-107 -44 -115 -248 -12 -310 39 -24 59 -25 103 -4 45 21 74 71 81 137 12 121 -80 216 -172 177z"/> 
        <path d="M1485 1530 c-107 -44 -115 -248 -12 -310 39 -24 59 -25 103 -4 45 21 74 71 81 137 12 121 -80 216 -172 177z"/> 
        <path d="M665 968 c-43 -24 -60 -78 -39 -126 24 -59 141 -164 232 -210 114 -57 208 -76 341 -69 114 6 201 29 281 74 130 74 230 181 230 247 0 52 -44 96 -95 96 -33 0 -45 -8 -109 -73 -202 -207 -494 -206 -688 3 -56 60 -70 70 -99 70 -19 0 -43 -6 -54 -12z"/> 
    </g> 
</svg>